<svg width="252" height="65" viewBox="0 0 252 65" fill="none" xmlns="http://www.w3.org/2000/svg">
<path d="M225.305 29.2128C223.739 27.6285 221.599 26.8252 218.938 26.8252C213.252 26.8252 209.124 31.06 209.124 36.894C209.124 42.728 213.344 47.159 218.938 47.159C222.114 47.159 224.098 45.9856 225.305 44.7751V45.4377C225.305 48.6842 222.928 50.7831 219.252 50.7831C216.939 50.7831 215.006 49.8502 213.167 47.8513L212.922 47.5847L209.883 50.598L210.087 50.846C212.297 53.4965 215.606 55.0179 219.171 55.0179C225.682 55.0179 229.888 51.0644 229.888 44.9491V27.2213H225.301V29.2165L225.305 29.2128ZM225.286 36.8977C225.286 40.3033 222.706 42.9686 219.411 42.9686C216.117 42.9686 213.714 40.3589 213.714 36.8977C213.714 33.4366 216.11 31.023 219.411 31.023C222.713 31.023 225.286 33.5476 225.286 36.8977Z" fill="#100C24"/>
<path d="M96.9976 36.6018C96.9976 40.322 94.4063 42.632 90.2381 42.632C86.0699 42.632 83.4602 40.322 83.4602 36.6018V19.4033H78.6775V36.7794C78.6775 43.0873 83.2159 47.1629 90.2381 47.1629C97.2604 47.1629 101.78 43.0873 101.78 36.7794V19.4033H96.9976V36.6018Z" fill="#100C24"/>
<path d="M116.465 26.8252C113.611 26.8252 111.905 28.0394 111.024 28.9537V27.2176H106.415V46.7666H111.001V35.7946C111.001 32.6333 113.441 31.2155 115.854 31.2155C118.579 31.2155 120.137 32.885 120.137 35.7946V46.7666H124.724V34.9691C124.724 29.9458 121.559 26.8252 116.461 26.8252H116.465Z" fill="#100C24"/>
<path d="M131.154 18.5C129.536 18.5 128.407 19.629 128.407 21.2467C128.407 22.8644 129.536 23.9934 131.154 23.9934C132.771 23.9934 133.919 22.8385 133.919 21.2467C133.919 19.655 132.757 18.5 131.154 18.5Z" fill="#100C24"/>
<path d="M133.445 27.2217H128.859V46.7707H133.445V27.2217Z" fill="#100C24"/>
<path d="M156.13 32.5483C157.707 31.3712 158.699 29.3463 158.699 27.2141C158.699 22.6868 155.134 19.4033 150.218 19.4033H138.361V46.7705H151.003C155.959 46.7705 159.698 43.302 159.698 38.7044C159.698 36.0872 158.314 33.7366 156.126 32.5483H156.13ZM143.207 30.753V23.7751H150.222C152.594 23.7751 153.838 25.5557 153.838 27.314C153.838 29.0724 152.594 30.753 150.222 30.753H143.207ZM154.919 38.6229C154.919 40.4886 153.575 42.3765 151.006 42.3765H143.207V34.9286H151.006C153.453 34.9286 154.919 36.8091 154.919 38.6229Z" fill="#100C24"/>
<path d="M171.648 26.8255C169.726 26.8255 168.172 27.551 167.087 28.9392V27.2179H162.478V46.7669H167.087V36.1465C167.087 31.623 170.193 31.1343 171.529 31.1343C172.721 31.1343 173.943 31.4823 174.12 31.5452L174.59 31.7155V27.4104L174.376 27.3215C174.328 27.2993 173.173 26.8218 171.648 26.8218V26.8255Z" fill="#100C24"/>
<path d="M179.732 18.5C178.114 18.5 176.985 19.629 176.985 21.2467C176.985 22.8644 178.114 23.9934 179.732 23.9934C181.35 23.9934 182.497 22.8385 182.497 21.2467C182.497 19.655 181.335 18.5 179.732 18.5Z" fill="#100C24"/>
<path d="M182.023 27.2217H177.437V46.7707H182.023V27.2217Z" fill="#100C24"/>
<path d="M201.324 29.2128C199.755 27.6285 197.619 26.8252 194.957 26.8252C189.272 26.8252 185.144 31.06 185.144 36.894C185.144 42.728 189.364 47.159 194.957 47.159C197.619 47.159 199.755 46.3557 201.324 44.7714V46.7666H205.911V18.4185H201.324V29.2091V29.2128ZM201.306 36.8977C201.306 40.3033 198.726 42.9686 195.431 42.9686C192.137 42.9686 189.734 40.3589 189.734 36.8977C189.734 33.4366 192.129 31.023 195.431 31.023C198.733 31.023 201.306 33.5476 201.306 36.8977Z" fill="#100C24"/>
<path d="M242.3 26.8255C236.454 26.8255 232.208 31.1084 232.208 37.0128C232.208 42.9171 236.606 47.1593 242.436 47.1593C246.175 47.1593 249.559 45.2529 251.265 42.1878L251.417 41.9176L248 39.4337L247.8 39.7484C246.49 41.8066 244.735 42.806 242.44 42.806C239.56 42.806 237.324 40.9996 236.976 38.4602H251.506L251.561 38.1751C251.672 37.6087 251.724 36.9943 251.724 36.302C251.724 30.8086 247.763 26.8218 242.303 26.8218L242.3 26.8255ZM237.121 34.8583C237.732 32.5595 239.745 31.0418 242.259 31.0418C244.772 31.0418 246.642 32.6262 247.023 34.8583H237.117H237.121Z" fill="#100C24"/>
<path opacity="0.5" d="M0 15.9867V44.6969C0 47.5618 1.5271 50.2086 4.01025 51.6426L24.8636 63.683C27.3467 65.1171 30.4009 65.1171 32.8841 63.683L53.7374 51.6426C56.2206 50.2086 57.7477 47.5618 57.7477 44.6969V15.9867L32.8841 1.63317C30.4009 0.1991 27.3467 0.1991 24.8636 1.63317L0 15.9867Z" fill="url(#paint0_linear_46_2179)"/>
<path d="M10.4268 22.0054V40.2986C10.4268 42.1593 11.4213 43.8822 13.0318 44.8125L20.8534 49.3265V15.9868L10.4268 22.0054Z" fill="url(#paint1_linear_46_2179)"/>
<path d="M47.3209 22.0052L36.8943 15.9834V49.3231L44.7159 44.8059C46.3296 43.8755 47.3209 42.1559 47.3209 40.292V21.9988V22.0052Z" fill="url(#paint2_linear_46_2179)"/>
<path d="M47.321 22.0054V39.596C47.321 41.46 46.3265 43.1828 44.7127 44.1131L31.4789 51.7551C29.8652 52.6855 27.8793 52.6855 26.2688 51.7551L13.0317 44.1131C11.418 43.1828 10.4267 41.4632 10.4267 39.5992V22.0054L0 15.9868V44.697C0 47.562 1.53031 50.2119 4.01025 51.6428L24.8636 63.6832C27.3467 65.1173 30.4041 65.1173 32.8841 63.6832L53.7374 51.6428C56.2206 50.2087 57.7477 47.562 57.7477 44.697V15.9868L47.321 22.0054Z" fill="url(#paint3_linear_46_2179)"/>
<path d="M10.4267 9.96484L0 15.9866L10.4267 22.0052L20.8533 15.9866L10.4267 9.96484Z" fill="#63FFBE"/>
<path d="M47.3209 9.96484L36.8943 15.9866L47.3209 22.0052L57.7476 15.9866L47.3209 9.96484Z" fill="#63FFBE"/>
<defs>
<linearGradient id="paint0_linear_46_2179" x1="28.8738" y1="64.7546" x2="28.8738" y2="0.55521" gradientUnits="userSpaceOnUse">
<stop offset="0.4" stop-color="#05D97F" stop-opacity="0"/>
<stop offset="1" stop-color="#80E1BD"/>
</linearGradient>
<linearGradient id="paint1_linear_46_2179" x1="15.6401" y1="15.9868" x2="15.6401" y2="49.3265" gradientUnits="userSpaceOnUse">
<stop stop-color="#05C494"/>
<stop offset="0.8" stop-color="#1E1F4A"/>
</linearGradient>
<linearGradient id="paint2_linear_46_2179" x1="42.1076" y1="15.9866" x2="42.1076" y2="49.3263" gradientUnits="userSpaceOnUse">
<stop stop-color="#05C494"/>
<stop offset="0.8" stop-color="#1E1F4A"/>
</linearGradient>
<linearGradient id="paint3_linear_46_2179" x1="28.8738" y1="64.7547" x2="28.8738" y2="15.9868" gradientUnits="userSpaceOnUse">
<stop offset="0.13" stop-color="#434BC8"/>
<stop offset="1" stop-color="#3BE89E"/>
</linearGradient>
</defs>
</svg>
