<svg version="1.2" xmlns="http://www.w3.org/2000/svg" viewBox="0 0 1024 841" width="1024" height="841"><defs><linearGradient id="P" gradientUnits="userSpaceOnUse"/><linearGradient id="g1" x2="1" href="#P" gradientTransform="matrix(0,-746.891,671.673,0,544.826,803.022)"><stop offset=".4" stop-color="#05d97f" stop-opacity="0"/><stop offset="1" stop-color="#80e1bd" stop-opacity="1"/></linearGradient><linearGradient id="g2" x2="1" href="#P" gradientTransform="matrix(0,387.913,-121.193,0,390.921,235.62)"><stop stop-color="#05c494"/><stop offset=".8" stop-color="#1e1f4a"/></linearGradient><linearGradient id="g3" x2="1" href="#P" gradientTransform="matrix(0,387.913,-121.193,0,698.732,235.62)"><stop stop-color="#05c494"/><stop offset=".8" stop-color="#1e1f4a"/></linearGradient><linearGradient id="g4" x2="1" href="#P" gradientTransform="matrix(0,-567.402,671.524,0,544.826,803.01)"><stop offset=".13" stop-color="#434bc8"/><stop offset="1" stop-color="#3be89e"/></linearGradient></defs><style>.a{opacity:.5;fill:url(#g1)}.b{fill:url(#g2)}.c{fill:url(#g3)}.d{fill:url(#g4)}.e{fill:#63ffbe}</style><path class="a" d="m209 235.6v334.1c0 33.3 17.8 64.1 46.7 80.7l242.5 140.1c28.8 16.6 64.4 16.6 93.4 0l242.5-140.1c28.8-16.6 46.6-47.4 46.6-80.7v-334.1l-289.1-167c-29-16.7-64.6-16.7-93.4 0z"/><path class="b" d="m330.3 305.7v212.8c0 21.6 11.6 41.6 30.3 52.5l90.9 52.5v-387.9z"/><path class="c" d="m759.4 305.7l-121.2-70.1v387.9l91-52.5c18.7-10.9 30.2-30.9 30.2-52.5z"/><path class="d" d="m759.4 305.7v204.6c0 21.7-11.6 41.7-30.4 52.6l-153.8 88.9c-18.8 10.8-41.9 10.8-60.7 0l-153.9-88.9c-18.7-10.9-30.4-30.8-30.4-52.6v-204.6l-121.2-70.1v334.1c0 33.3 17.8 64.1 46.7 80.7l242.5 140.1c28.8 16.8 64.4 16.8 93.3 0l242.4-140.1c28.9-16.6 46.7-47.4 46.7-80.7v-334.1z"/><path class="e" d="m330.3 165.6l-121.3 70 121.3 70.1 121.2-70.1z"/><path class="e" d="m759.4 165.6l-121.3 70 121.3 70.1 121.2-70.1z"/></svg>